@startuml
  interface CLI
  interface Web
  interface WebSocket
package "Service Management Layer" #lightgreen {
  component express as REST
  component socket.io as socket
  folder bin #ffffff {
    component " sabr sml" as binName
  }
  binName --> REST

  folder deploy #ffffff {
      file "node server.js\ndocker-compose.yml" as _sml_container
      REST --> _sml_container

  
    file "web" as web_container
    REST --> web_container
    socket ---> web_container
  
    file "gateway" as gateway_container
    REST --> gateway_container
    socket ---> gateway_container
  
  }
  folder images #ffffff {
    collections "_sml" as _smlimage
    artifact "ailtire:swarm" as ailtireswarm
    _smlimage <|-- ailtireswarm
    _sml_container --> _smlimage

  
      artifact _sml_web
      web_container --> _sml_web
    
      artifact _sml_gw
      gateway_container --> _sml_gw
    
  }
}
CLI " sabr sml" -- binName
Web "/sabr/sml" - REST
WebSocket ".sabr.sml" -- socket

@enduml
