@startuml
  interface CLI
  interface Web
  interface WebSocket
package "Edge Security Controller" #ffcccc {
  component express as REST
  component socket.io as socket
  folder bin #ffffff {
    component " sabr sa esc" as binName
  }
  binName --> REST

  folder deploy #ffffff {
      file "node server.js\n" as sa_esc_container
      REST --> sa_esc_container

  
    file "sabr_sa_esc" as sabr_sa_esc_container
    REST --> sabr_sa_esc_container
    socket ---> sabr_sa_esc_container
  
  }
  folder images #ffffff {
    collections "sa_esc" as sa_escimage
    artifact "ailtire:swarm" as ailtireswarm
    sa_escimage <|-- ailtireswarm
    sa_esc_container --> sa_escimage

  
      artifact "sabr_sa_esc" as sabr_sa_esc
      sabr_sa_esc_container --> sabr_sa_esc
    
  }
}
CLI " sabr sa esc" -- binName
Web "/sabr/sa/esc" - REST
WebSocket ".sabr.sa.esc" -- socket

@enduml
