@startuml
  interface CLI
  interface Web
  interface WebSocket
package "Distributed Information Management Layer" #ffcc88 {
  component express as REST
  component socket.io as socket
  folder bin #ffffff {
    component " sabr diml" as binName
  }
  binName --> REST

  folder deploy #ffffff {
      file "node server.js\ndocker-compose.yml" as _diml_container
      REST --> _diml_container

  
    file "web" as web_container
    REST --> web_container
    socket ---> web_container
  
    file "gateway" as gateway_container
    REST --> gateway_container
    socket ---> gateway_container
  
  }
  folder images #ffffff {
    collections "_diml" as _dimlimage
    artifact "ailtire:swarm" as ailtireswarm
    _dimlimage <|-- ailtireswarm
    _diml_container --> _dimlimage

  
      artifact "_diml_web" as _diml_web
      web_container --> _diml_web
    
      artifact "_diml_gw" as _diml_gw
      gateway_container --> _diml_gw
    
  }
}
CLI " sabr diml" -- binName
Web "/sabr/diml" - REST
WebSocket ".sabr.diml" -- socket

@enduml
