@startuml
  interface CLI
  interface Web
  interface WebSocket
package "Key Manager" #lightblue {
  component express as REST
  component socket.io as socket
  folder bin #ffffff {
    component " sabr sa km" as binName
  }
  binName --> REST

  folder deploy #ffffff {
      file "node server.js\n" as s_km_container
      REST --> s_km_container


    file "registry" as registry_container
    REST --> registry_container
    socket ---> registry_container

  }
  folder images #ffffff {
    collections "s_km" as s_kmimage
    artifact "ailtire:swarm" as ailtireswarm
    s_kmimage <|-- ailtireswarm
    s_km_container --> s_kmimage


      artifact "sa_km_registry" as sa_km_registry
      registry_container --> sa_km_registry

  }
}
CLI " sabr sa km" -- binName
Web "/sabr/sa/km" - REST
WebSocket ".sabr.sa.km" -- socket

@enduml
