@startuml
  interface CLI
  interface Web
  interface WebSocket
package "Application Manager" #00aaff {
  component express as REST
  component socket.io as socket
  folder bin #ffffff {
    component " sabr aml am" as binName
  }
  binName --> REST

  folder deploy #ffffff {
      file "node server.js\n" as sabr_aml_am_container
      REST --> sabr_aml_am_container

  
    file "web" as web_container
    REST --> web_container
    socket ---> web_container
  
  }
  folder images #ffffff {
    collections "sabr_aml_am" as sabr_aml_amimage
    artifact "ailtire:swarm" as ailtireswarm
    sabr_aml_amimage <|-- ailtireswarm
    sabr_aml_am_container --> sabr_aml_amimage

  
      artifact "sabr_aml_am_web" as sabr_aml_am_web
      web_container --> sabr_aml_am_web
    
  }
}
CLI " sabr aml am" -- binName
Web "/sabr/aml/am" - REST
WebSocket ".sabr.aml.am" -- socket

@enduml
