@startuml
  interface CLI
  interface Web
  interface WebSocket
package "Service Management Layer" #lightgreen {
  component express as REST
  component socket.io as socket
  folder bin #ffffff {
    component " sabr sml" as binName
  }
  binName --> REST

  folder deploy #ffffff {
      file "node server.js\n" as sabr_sml_container
      REST --> sabr_sml_container

  
    file "web" as web_container
    REST --> web_container
    socket ---> web_container
  
  }
  folder images #ffffff {
    collections "sabr_sml" as sabr_smlimage
    artifact "ailtire:swarm" as ailtireswarm
    sabr_smlimage <|-- ailtireswarm
    sabr_sml_container --> sabr_smlimage

  
      artifact "sabr_sml_web" as sabr_sml_web
      web_container --> sabr_sml_web
    
  }
}
CLI " sabr sml" -- binName
Web "/sabr/sml" - REST
WebSocket ".sabr.sml" -- socket

@enduml
