@startuml
  interface CLI
  interface Web
  interface WebSocket
package "Software Defined Infrastructure" #lightyellow {
  component express as REST
  component socket.io as socket
  folder bin #ffffff {
    component " sabr sdi" as binName
  }
  binName --> REST

  folder deploy #ffffff {
      file "node server.js\n" as sabr_sdi_container
      REST --> sabr_sdi_container


    file "web" as web_container
    REST --> web_container
    socket ---> web_container

  }
  folder images #ffffff {
    collections "sabr_sdi" as sabr_sdiimage
    artifact "ailtire:swarm" as ailtireswarm
    sabr_sdiimage <|-- ailtireswarm
    sabr_sdi_container --> sabr_sdiimage


      artifact "sabr_sdi_web" as sabr_sdi_web
      web_container --> sabr_sdi_web

  }
}
CLI " sabr sdi" -- binName
Web "/sabr/sdi" - REST
WebSocket ".sabr.sdi" -- socket

@enduml
