@startuml
  interface CLI
  interface Web
  interface WebSocket
package "Learning Corpus" #00aaff {
  component express as REST
  component socket.io as socket
  folder bin #ffffff {
    component " sabr aml lc" as binName
  }
  binName --> REST

  folder deploy #ffffff {
      file "node server.js\ndocker-compose.yml" as _lc_container
      REST --> _lc_container

  
    file "web" as web_container
    REST --> web_container
    socket ---> web_container
  
    file "gateway" as gateway_container
    REST --> gateway_container
    socket ---> gateway_container
  
  }
  folder images #ffffff {
    collections "_lc" as _lcimage
    artifact "ailtire:swarm" as ailtireswarm
    _lcimage <|-- ailtireswarm
    _lc_container --> _lcimage

  
      artifact "_lc_web" as _lc_web
      web_container --> _lc_web
    
      artifact "_lc_gw" as _lc_gw
      gateway_container --> _lc_gw
    
  }
}
CLI " sabr aml lc" -- binName
Web "/sabr/aml/lc" - REST
WebSocket ".sabr.aml.lc" -- socket

@enduml
